<svg xmlns="http://www.w3.org/2000/svg" version="1.1" xmlns:xlink="http://www.w3.org/1999/xlink" xmlns:svgjs="http://svgjs.dev/svgjs" width="1500" height="1500" viewBox="0 0 1500 1500"><rect width="1500" height="1500" fill="#4d7e3e"></rect><g transform="matrix(0.6666666666666666,0,0,0.6666666666666666,249.39393939393938,509.38685292195225)"><svg viewBox="0 0 396 190" data-background-color="#4d7e3e" preserveAspectRatio="xMidYMid meet" height="719" width="1500" xmlns="http://www.w3.org/2000/svg" xmlns:xlink="http://www.w3.org/1999/xlink"><g id="tight-bounds" transform="matrix(1,0,0,1,0.2400000000000091,0.37516956501198706)"><svg viewBox="0 0 395.52 189.24966086997603" height="189.24966086997603" width="395.52"><g><svg viewBox="0 0 395.52 189.24966086997603" height="189.24966086997603" width="395.52"><g transform="matrix(1,0,0,1,0,116.963882737494)"><svg viewBox="0 0 395.52 72.28577813248204" height="72.28577813248204" width="395.52"><g id="textblocktransform"><svg viewBox="0 0 395.52 72.28577813248204" height="72.28577813248204" width="395.52" id="textblock"><g><svg viewBox="0 0 395.52 72.28577813248204" height="72.28577813248204" width="395.52"><g transform="matrix(1,0,0,1,0,0)"><svg width="395.52" viewBox="0.48 -33.8 188 34.349999999999994" height="72.28577813248204" data-palette-color="#ffffff"><path d="M11.5-33.8L11.5-33.8Q13.38-33.8 14.86-33.46 16.35-33.13 17.6-32.63L17.6-32.63 18-29.45Q16.78-29.9 15.54-30.16 14.3-30.43 12.75-30.43L12.75-30.43Q10.88-30.43 9.74-29.94 8.6-29.45 8.11-28.56 7.63-27.68 7.63-26.43L7.63-26.43 7.63-26.3Q7.63-25.43 7.85-24.64 8.08-23.85 8.35-23.2L8.35-23.2 5.63-23.1 5.63-23.6Q4.85-24.2 4.26-25.28 3.68-26.35 3.68-27.78L3.68-27.78 3.68-27.9Q3.68-30.58 5.58-32.19 7.48-33.8 11.5-33.8ZM8.53 0L4.5 0 4.5-22.23 8.53-22.23 8.53 0ZM17.53-20.25L0.48-20.25 0.48-23.48 6.05-23.45 7.7-23.48 17.9-23.48 17.53-20.25ZM40.57 0L36.55 0 36.72-5.93 36.57-6.55 36.57-14.33 36.6-15.75Q36.6-18.73 35.09-20.15 33.57-21.58 30.3-21.58L30.3-21.58Q27.67-21.58 25.48-20.83 23.3-20.08 21.6-19.07L21.6-19.07 21.97-22.53Q22.92-23.1 24.23-23.66 25.55-24.23 27.23-24.6 28.92-24.98 30.95-24.98L30.95-24.98Q33.57-24.98 35.41-24.34 37.25-23.7 38.39-22.5 39.52-21.3 40.05-19.6 40.57-17.9 40.57-15.8L40.57-15.8 40.57 0ZM28.15 0.53L28.15 0.53Q24.52 0.53 22.59-1.24 20.65-3 20.65-6.28L20.65-6.28 20.65-7Q20.65-10.38 22.73-12.04 24.82-13.7 29.37-14.35L29.37-14.35 37.1-15.45 37.32-12.5 29.87-11.43Q27.07-11.03 25.87-10.06 24.67-9.1 24.67-7.23L24.67-7.23 24.67-6.83Q24.67-4.9 25.86-3.88 27.05-2.85 29.42-2.85L29.42-2.85Q31.52-2.85 33.02-3.58 34.52-4.3 35.45-5.53 36.37-6.75 36.7-8.25L36.7-8.25 37.32-5.5 36.55-5.5Q36.2-3.9 35.23-2.53 34.27-1.15 32.55-0.31 30.82 0.53 28.15 0.53ZM54.4 0.55L54.4 0.55Q51.45 0.55 49.25-0.09 47.05-0.73 45.6-1.48L45.6-1.48 45.22-5.23Q47.05-4.28 49.23-3.58 51.42-2.88 54.2-2.88L54.2-2.88Q57.02-2.88 58.45-3.78 59.87-4.67 59.87-6.45L59.87-6.45 59.87-6.73Q59.87-7.88 59.33-8.63 58.8-9.38 57.4-9.95 56-10.53 53.42-11.1L53.42-11.1Q50.35-11.78 48.57-12.69 46.8-13.6 46.03-14.95 45.27-16.3 45.27-18.25L45.27-18.25 45.27-18.48Q45.27-21.68 47.5-23.33 49.72-24.98 54.2-24.98L54.2-24.98Q57.07-24.98 59.18-24.33 61.3-23.68 62.65-22.88L62.65-22.88 63.02-19.45Q61.4-20.4 59.3-21.03 57.2-21.65 54.57-21.65L54.57-21.65Q52.67-21.65 51.5-21.26 50.32-20.88 49.8-20.16 49.27-19.45 49.27-18.45L49.27-18.45 49.27-18.25Q49.27-17.15 49.8-16.39 50.32-15.63 51.68-15.06 53.05-14.5 55.47-13.98L55.47-13.98Q58.6-13.35 60.43-12.48 62.27-11.6 63.07-10.26 63.87-8.93 63.87-6.83L63.87-6.83 63.87-6.4Q63.87-2.95 61.47-1.2 59.07 0.55 54.4 0.55ZM77.69 0.5L77.69 0.5Q74.87 0.5 73.14-0.35 71.42-1.2 70.64-2.93 69.87-4.65 69.87-7.23L69.87-7.23 69.87-22.63 73.87-22.63 73.87-7.7Q73.87-5.3 74.97-4.16 76.07-3.03 78.67-3.03L78.67-3.03Q80.14-3.03 81.51-3.35 82.87-3.68 84.07-4.28L84.07-4.28 83.69-0.8Q82.52-0.2 80.94 0.15 79.37 0.5 77.69 0.5ZM83.44-20.8L65.87-20.8 65.87-24.05 83.82-24.05 83.44-20.8ZM73.77-23.65L69.89-23.65 69.87-30.5 73.94-31.03 73.77-23.65ZM96.79-33.8L96.79-33.8Q98.67-33.8 100.15-33.46 101.64-33.13 102.89-32.63L102.89-32.63 103.29-29.45Q102.07-29.9 100.83-30.16 99.59-30.43 98.04-30.43L98.04-30.43Q96.17-30.43 95.03-29.94 93.89-29.45 93.4-28.56 92.92-27.68 92.92-26.43L92.92-26.43 92.92-26.3Q92.92-25.43 93.14-24.64 93.37-23.85 93.64-23.2L93.64-23.2 90.92-23.1 90.92-23.6Q90.14-24.2 89.55-25.28 88.97-26.35 88.97-27.78L88.97-27.78 88.97-27.9Q88.97-30.58 90.87-32.19 92.77-33.8 96.79-33.8ZM93.82 0L89.79 0 89.79-22.23 93.82-22.23 93.82 0ZM102.82-20.25L85.77-20.25 85.77-23.48 91.34-23.45 92.99-23.48 103.19-23.48 102.82-20.25ZM111.49 0L107.44 0 107.44-24.4 111.49-24.4 111.49 0ZM109.46-28.4L109.46-28.4Q108.21-28.4 107.6-29.06 106.99-29.73 106.99-30.88L106.99-30.88 106.99-31Q106.99-32.18 107.6-32.83 108.21-33.48 109.46-33.48L109.46-33.48Q110.71-33.48 111.34-32.83 111.96-32.18 111.96-31L111.96-31 111.96-30.88Q111.96-29.7 111.34-29.05 110.71-28.4 109.46-28.4ZM122.34 0L118.31 0 118.31-33.13 122.34-33.13 122.34 0ZM137.93 0.5L137.93 0.5Q135.11 0.5 133.38-0.35 131.66-1.2 130.88-2.93 130.11-4.65 130.11-7.23L130.11-7.23 130.11-22.63 134.11-22.63 134.11-7.7Q134.11-5.3 135.21-4.16 136.31-3.03 138.91-3.03L138.91-3.03Q140.38-3.03 141.75-3.35 143.11-3.68 144.31-4.28L144.31-4.28 143.93-0.8Q142.76-0.2 141.18 0.15 139.61 0.5 137.93 0.5ZM143.68-20.8L126.11-20.8 126.11-24.05 144.06-24.05 143.68-20.8ZM134.01-23.65L130.13-23.65 130.11-30.5 134.18-31.03 134.01-23.65ZM159.08 0.55L159.08 0.55Q153.51 0.55 150.68-2.18 147.86-4.9 147.86-9.98L147.86-9.98 147.86-14.33Q147.86-19.48 150.48-22.26 153.11-25.05 158.16-25.05L158.16-25.05Q161.56-25.05 163.83-23.79 166.11-22.53 167.26-20.2 168.41-17.88 168.41-14.65L168.41-14.65 168.41-13.75Q168.41-12.95 168.34-12.15 168.28-11.35 168.18-10.58L168.18-10.58 164.46-10.58Q164.51-11.78 164.52-12.85 164.53-13.93 164.53-14.83L164.53-14.83Q164.53-17.05 163.82-18.59 163.11-20.13 161.69-20.94 160.28-21.75 158.16-21.75L158.16-21.75Q155.01-21.75 153.43-19.93 151.86-18.1 151.86-14.7L151.86-14.7 151.86-12.38 151.88-11.88 151.88-9.55Q151.88-8.03 152.33-6.8 152.78-5.58 153.74-4.69 154.71-3.8 156.19-3.34 157.68-2.88 159.73-2.88L159.73-2.88Q162.11-2.88 164.16-3.5 166.21-4.13 168.01-5.2L168.01-5.2 167.63-1.7Q166.01-0.68 163.86-0.06 161.71 0.55 159.08 0.55ZM167.33-10.58L149.98-10.58 149.98-13.63 167.33-13.63 167.33-10.58ZM177.65-14.93L177.65-14.93 176.73-18.05 177.73-18.1Q178.53-21.2 180.48-22.99 182.43-24.78 185.65-24.78L185.65-24.78Q186.45-24.78 187.09-24.65 187.73-24.53 188.23-24.35L188.23-24.35 188.48-20.43Q187.85-20.63 187.09-20.75 186.33-20.88 185.4-20.88L185.4-20.88Q182.65-20.88 180.62-19.35 178.58-17.82 177.65-14.93ZM177.85 0L173.8 0 173.8-24.4 177.75-24.4 177.55-17.2 177.85-16.9 177.85 0Z" opacity="1" transform="matrix(1,0,0,1,0,0)" fill="#ffffff" class="wordmark-text-0" data-fill-palette-color="primary" id="text-0"></path></svg></g></svg></g></svg></g></svg></g><g transform="matrix(1,0,0,1,121.49868607788908,0)"><svg viewBox="0 0 152.52262784422183 99.89894537909018" height="99.89894537909018" width="152.52262784422183"><g><svg xmlns="http://www.w3.org/2000/svg" xmlns:xlink="http://www.w3.org/1999/xlink" version="1.1" x="0" y="0" viewBox="3.5149999999999997 22.591 92.168 60.368" enable-background="new 0 0 100 100" xml:space="preserve" height="99.89894537909018" width="152.52262784422183" class="icon-icon-0" data-fill-palette-color="accent" id="icon-0"><path fill="none" d="M65.499 27.132C51.36 27.132 39.857 38.635 39.857 52.774S51.36 78.416 65.499 78.416 91.141 66.913 91.141 52.774 79.638 27.132 65.499 27.132M67.461 53.917A2.27 2.27 0 0 1 64.356 54.736L51.678 47.351A2.27 2.27 0 1 1 53.964 43.427L66.642 50.812A2.27 2.27 0 0 1 67.461 53.917"></path><path d="M65.499 22.591C48.856 22.591 35.315 36.131 35.315 52.775 35.315 69.418 48.855 82.959 65.499 82.959S95.683 69.419 95.683 52.775 82.142 22.591 65.499 22.591M65.499 78.417C51.36 78.417 39.857 66.914 39.857 52.775S51.36 27.133 65.499 27.133 91.141 38.636 91.141 52.775 79.638 78.417 65.499 78.417" fill="#ffffff" data-fill-palette-color="accent"></path><path d="M66.642 50.813L53.964 43.428A2.27 2.27 0 1 0 51.678 47.352L64.356 54.737A2.27 2.27 0 0 0 67.461 53.918 2.27 2.27 0 0 0 66.642 50.813" fill="#ffffff" data-fill-palette-color="accent"></path><path fill="#ffffff" d="M9.515 38.18H30.515A2 2 0 0 0 30.515 34.18H9.515A2 2 0 0 0 9.515 38.18" data-fill-palette-color="accent"></path><path fill="#ffffff" d="M5.515 48.834H26.515A2 2 0 0 0 26.515 44.834H5.515A2 2 0 0 0 5.515 48.834" data-fill-palette-color="accent"></path><path fill="#ffffff" d="M28.515 57.488A2 2 0 0 0 26.515 55.488H5.515A2 2 0 0 0 5.515 59.488H26.515A2 2 0 0 0 28.515 57.488" data-fill-palette-color="accent"></path><path fill="#ffffff" d="M32.515 68.142A2 2 0 0 0 30.515 66.142H9.515A2 2 0 0 0 9.515 70.142H30.515A2 2 0 0 0 32.515 68.142" data-fill-palette-color="accent"></path></svg></g></svg></g><g></g></svg></g><defs></defs></svg><rect width="395.52" height="189.24966086997603" fill="none" stroke="none" visibility="hidden"></rect></g></svg></g></svg>